<?xml version="1.0" encoding="UTF-8"?>
<svg version="1.1" xmlns="http://www.w3.org/2000/svg" width="220" height="220">
<path d="M0 0 C1 3 1 3 -0.30078125 6.125 C-0.96087381 7.42205382 -1.63235113 8.71334996 -2.3125 10 C-2.67206787 10.69915527 -3.03163574 11.39831055 -3.40209961 12.11865234 C-4.58964133 14.41877047 -5.79296995 16.71005367 -7 19 C-7.6197168 20.17997559 -7.6197168 20.17997559 -8.25195312 21.38378906 C-9.9433327 24.60316147 -11.63829709 27.82063443 -13.3347168 31.03735352 C-14.55794559 33.3574671 -15.7795692 35.67841349 -17 38 C-17.37141113 38.70592285 -17.74282227 39.4118457 -18.12548828 40.13916016 C-19.13463132 42.06730291 -20.13190426 44.001054 -21.125 45.9375 C-21.96417969 47.55978516 -21.96417969 47.55978516 -22.8203125 49.21484375 C-24.26001275 52.10975594 -24.26001275 52.10975594 -24 56 C-21.5076392 58.28928575 -21.5076392 58.28928575 -19.703125 59.55859375 C-13.47367546 64.8307655 -11.02341079 72.33035596 -7.88671875 79.6328125 C-2.58994236 91.67844104 2.32482595 98.34791613 14.1875 104 C18.8118574 106.27129538 21.97352107 108.94704214 24.3125 113.625 C26.05529166 122.18052271 25.52581809 128.50411379 21 136 C20.34 136 19.68 136 19 136 C19 136.66 19 137.32 19 138 C12.08585135 141.61421407 5.99868712 143.51540658 -1.71875 141.17578125 C-3.55215805 140.4983269 -5.37738151 139.79807874 -7.19140625 139.0703125 C-13.2028446 136.77944448 -18.24782931 135.77238498 -24.69921875 135.98046875 C-26.17120603 136.01065291 -27.64321235 136.03992026 -29.11523438 136.06835938 C-31.3950282 136.12377357 -33.67382231 136.18701799 -35.95288086 136.26733398 C-49.62989637 136.72031365 -59.44359382 134.41790844 -70.35546875 125.55078125 C-72 124 -72 124 -73 122 C-73.49350117 133.53330522 -71.995517 144.1290951 -69.4699707 155.35620117 C-66.22651246 173.60212808 -68.45737817 192.6162033 -77 209 C-79.41977234 206.59298568 -81.82767533 204.18064804 -84.18359375 201.7109375 C-92.66502554 192.92082275 -102.22661876 185.7607539 -112.0625 178.5625 C-118.82970653 173.51194132 -124.96663497 167.89334154 -131 162 C-131.77601563 161.24976563 -132.55203125 160.49953125 -133.3515625 159.7265625 C-143.32579251 149.36722709 -146.68740273 139.48698498 -146.53320312 125.45996094 C-146.34046764 120.04901463 -145.49072649 115.2024544 -144 110 C-151.11484687 110.3856646 -157.35441866 111.39099399 -164 114 C-160.31436841 99.15216989 -148.763327 90.01541744 -136.1875 82.34765625 C-134.10211938 81.17916472 -134.10211938 81.17916472 -133 80 C-133.80824219 79.74605469 -134.61648437 79.49210937 -135.44921875 79.23046875 C-137.05216797 78.71419922 -137.05216797 78.71419922 -138.6875 78.1875 C-139.74324219 77.85105469 -140.79898438 77.51460938 -141.88671875 77.16796875 C-146.66238894 75.37634342 -150.34800699 73.46651454 -153 69 C-153 68.01 -153 67.02 -153 66 C-152.21238281 65.98582031 -151.42476562 65.97164063 -150.61328125 65.95703125 C-137.20390505 65.36987513 -126.62969751 60.04934195 -115.1171875 53.671875 C-112 52 -112 52 -109 51 C-109.5775 50.66226563 -110.155 50.32453125 -110.75 49.9765625 C-111.86375 49.30753906 -111.86375 49.30753906 -113 48.625 C-113.7425 48.18414062 -114.485 47.74328125 -115.25 47.2890625 C-115.8275 46.86367188 -116.405 46.43828125 -117 46 C-117 45.34 -117 44.68 -117 44 C-117.598125 43.7525 -118.19625 43.505 -118.8125 43.25 C-122.03969378 41.40588927 -123.60411758 39.29561518 -124.6875 35.75 C-124.8421875 34.88375 -124.8421875 34.88375 -125 34 C-124.31679687 34.17273437 -123.63359375 34.34546875 -122.9296875 34.5234375 C-119.53432523 35.07574976 -116.55225142 34.90247987 -113.125 34.625 C-111.95195313 34.53476562 -110.77890625 34.44453125 -109.5703125 34.3515625 C-107.27015632 34.1250701 -104.97470865 33.83900384 -102.69140625 33.48046875 C-86.35578804 31.35424543 -71.79696553 32.44825464 -58 42 C-57.62875 40.98099609 -57.62875 40.98099609 -57.25 39.94140625 C-55.76346339 36.44339978 -53.91625668 33.21110515 -52 29.9375 C-48.85295525 24.54840377 -48.85295525 24.54840377 -46 19 C-42.29514265 21.4699049 -41.12479386 23.82219423 -40 28 C-39.27696781 33.66030918 -39 39.29645841 -39 45 C-38.54625 44.34 -38.0925 43.68 -37.625 43 C-37.08875 42.34 -36.5525 41.68 -36 41 C-35.34 41 -34.68 41 -34 41 C-33.64421875 40.18789062 -33.64421875 40.18789062 -33.28125 39.359375 C-31.65652243 36.36749863 -29.6498123 33.88840601 -27.5 31.25 C-26.7059375 30.26515625 -25.911875 29.2803125 -25.09375 28.265625 C-24.4028125 27.51796875 -23.711875 26.7703125 -23 26 C-22.34 26 -21.68 26 -21 26 C-20.72929687 25.40960938 -20.45859375 24.81921875 -20.1796875 24.2109375 C-19.00928233 22.01739669 -17.79297085 20.4589381 -16.125 18.625 C-12.54774114 14.63001452 -9.04704707 10.57573974 -5.5625 6.5 C-4.74579834 5.54601318 -4.74579834 5.54601318 -3.91259766 4.57275391 C-2.60799474 3.04884811 -1.30393904 1.52447388 0 0 Z " fill="#170217" transform="translate(179,7)"/>
<path d="M0 0 C1.32 0.33 2.64 0.66 4 1 C3.01 1 2.02 1 1 1 C1 2.32 1 3.64 1 5 C1.99 5.33 2.98 5.66 4 6 C3.01 6 2.02 6 1 6 C1 7.32 1 8.64 1 10 C1.66 10.33 2.32 10.66 3 11 C2.34 11 1.68 11 1 11 C1.33 13.64 1.66 16.28 2 19 C1.34 19 0.68 19 0 19 C-0.33 19.66 -0.66 20.32 -1 21 C-0.79375 20.38125 -0.5875 19.7625 -0.375 19.125 C-0.25125 18.42375 -0.1275 17.7225 0 17 C-0.66 16.34 -1.32 15.68 -2 15 C-2 13.68 -2 12.36 -2 11 C-1.34 10.67 -0.68 10.34 0 10 C0 6.7 0 3.4 0 0 Z " fill="#A000A0" transform="translate(65,71)"/>
<path d="M0 0 C1.83117102 3.13188377 2.2718057 5.44820595 2.25 9.0625 C2.25515625 9.91972656 2.2603125 10.77695313 2.265625 11.66015625 C2 14 2 14 0 17 C-0.66 14.69 -1.32 12.38 -2 10 C-1.34 10 -0.68 10 0 10 C0 9.34 0 8.68 0 8 C-0.66 7.67 -1.32 7.34 -2 7 C-2 5.33333333 -2 3.66666667 -2 2 C-1.34 2 -0.68 2 0 2 C0 1.34 0 0.68 0 0 Z " fill="#E900E9" transform="translate(154,96)"/>
<path d="M0 0 C1.9375 0.375 1.9375 0.375 4 1 C4.33 1.66 4.66 2.32 5 3 C4.34 3 3.68 3 3 3 C3.185625 4.2375 3.37125 5.475 3.5625 6.75 C3.94711223 9.76279577 4.0874594 12.10010827 3 15 C2.01 14.67 1.02 14.34 0 14 C0 12.33333333 0 10.66666667 0 9 C0.66 9 1.32 9 2 9 C2 8.34 2 7.68 2 7 C1.34 6.67 0.68 6.34 0 6 C0.66 6 1.32 6 2 6 C2 5.01 2 4.02 2 3 C1.34 2.67 0.68 2.34 0 2 C0 1.34 0 0.68 0 0 Z " fill="#F000F0" transform="translate(64,133)"/>
<path d="M0 0 C0.33 0.99 0.66 1.98 1 3 C1.66 3.33 2.32 3.66 3 4 C2.34 4 1.68 4 1 4 C1.66 6.97 2.32 9.94 3 13 C0.5 10.75 0.5 10.75 -2 8 C-2 6.68 -2 5.36 -2 4 C-1.34 3.67 -0.68 3.34 0 3 C0 2.01 0 1.02 0 0 Z " fill="#FF00FF" transform="translate(143,87)"/>
<path d="M0 0 C1.65 0 3.3 0 5 0 C5 0.99 5 1.98 5 3 C5.99 2.67 6.98 2.34 8 2 C8 2.66 8 3.32 8 4 C5.125 4.625 5.125 4.625 2 5 C1.34 4.34 0.68 3.68 0 3 C0 2.01 0 1.02 0 0 Z " fill="#440044" transform="translate(26,73)"/>
<path d="M0 0 C1.125 1.625 1.125 1.625 2 4 C1.125 7.25 1.125 7.25 0 10 C0.66 10.33 1.32 10.66 2 11 C0.68 10.67 -0.64 10.34 -2 10 C-1.814375 9.4225 -1.62875 8.845 -1.4375 8.25 C-0.95976454 5.79307475 -1.24270636 4.35602466 -2 2 C-1.34 2 -0.68 2 0 2 C0 1.34 0 0.68 0 0 Z " fill="#E900E9" transform="translate(130,132)"/>
<path d="M0 0 C1.98 0.495 1.98 0.495 4 1 C4.33 2.98 4.66 4.96 5 7 C3.02 7 1.04 7 -1 7 C-0.01 6.67 0.98 6.34 2 6 C1.34 5.01 0.68 4.02 0 3 C0 2.01 0 1.02 0 0 Z " fill="#000000" transform="translate(149,136)"/>
<path d="M0 0 C0.66 0.99 1.32 1.98 2 3 C1.67 3.66 1.34 4.32 1 5 C1.66 5.33 2.32 5.66 3 6 C3 9 3 9 2 12 C1.34 12 0.68 12 0 12 C0 10.02 0 8.04 0 6 C-0.66 5.67 -1.32 5.34 -2 5 C-1.34 5 -0.68 5 0 5 C0 3.35 0 1.7 0 0 Z " fill="#E900E9" transform="translate(65,120)"/>
<path d="M0 0 C0.33 0.66 0.66 1.32 1 2 C0.67 2.66 0.34 3.32 0 4 C0.66 4.33 1.32 4.66 2 5 C2 8 2 8 1 11 C0.34 11 -0.32 11 -1 11 C-1 9.02 -1 7.04 -1 5 C-1.66 4.67 -2.32 4.34 -3 4 C-2.34 4 -1.68 4 -1 4 C-0.67 2.68 -0.34 1.36 0 0 Z " fill="#E800E8" transform="translate(110,68)"/>
<path d="M0 0 C0.66 0.33 1.32 0.66 2 1 C1.67 1.66 1.34 2.32 1 3 C1.66 3.33 2.32 3.66 3 4 C2.34 4 1.68 4 1 4 C1 5.98 1 7.96 1 10 C-0.32 9.67 -1.64 9.34 -3 9 C-2.649375 8.38125 -2.29875 7.7625 -1.9375 7.125 C-1.628125 6.42375 -1.31875 5.7225 -1 5 C-1.33 4.34 -1.66 3.68 -2 3 C-1.34 3 -0.68 3 0 3 C0 2.01 0 1.02 0 0 Z " fill="#9B179B" transform="translate(129,51)"/>
<path d="M0 0 C1.65 0 3.3 0 5 0 C4.01 0.495 4.01 0.495 3 1 C3.66 3.31 4.32 5.62 5 8 C4.34 8 3.68 8 3 8 C2.67 9.32 2.34 10.64 2 12 C2 10.68 2 9.36 2 8 C1.34 7.67 0.68 7.34 0 7 C0.66 7 1.32 7 2 7 C2 5.02 2 3.04 2 1 C1.34 0.67 0.68 0.34 0 0 Z " fill="#FF00FF" transform="translate(127,91)"/>
<path d="M0 0 C0.33 0.99 0.66 1.98 1 3 C1.66 3.33 2.32 3.66 3 4 C-1.455 4.495 -1.455 4.495 -6 5 C-6 4.34 -6 3.68 -6 3 C-4.02 2.01 -2.04 1.02 0 0 Z " fill="#780078" transform="translate(56,65)"/>
<path d="M0 0 C1.32 0 2.64 0 4 0 C3.67 1.32 3.34 2.64 3 4 C2.34 4 1.68 4 1 4 C1 4.66 1 5.32 1 6 C1.66 6.33 2.32 6.66 3 7 C2.01 7 1.02 7 0 7 C0 4.69 0 2.38 0 0 Z " fill="#CC00CC" transform="translate(40,150)"/>
<path d="M0 0 C2 2 2 2 2.25 4.4375 C2 7 2 7 0 10 C-0.66 7.69 -1.32 5.38 -2 3 C-1.34 3 -0.68 3 0 3 C0 2.01 0 1.02 0 0 Z " fill="#7E007E" transform="translate(159,121)"/>
<path d="M0 0 C1.32 0 2.64 0 4 0 C3.67 1.32 3.34 2.64 3 4 C2.34 4 1.68 4 1 4 C1 4.66 1 5.32 1 6 C1.66 6.33 2.32 6.66 3 7 C2.01 7 1.02 7 0 7 C0 4.69 0 2.38 0 0 Z " fill="#CC00CC" transform="translate(191,115)"/>
<path d="M0 0 C0.33 0.99 0.66 1.98 1 3 C1.66 3.33 2.32 3.66 3 4 C2.34 4 1.68 4 1 4 C1.33 5.65 1.66 7.3 2 9 C1.01 9 0.02 9 -1 9 C-0.67 6.03 -0.34 3.06 0 0 Z " fill="#F100F1" transform="translate(169,131)"/>
<path d="M0 0 C2 3 2 3 1.625 6.1875 C1.41875 7.115625 1.2125 8.04375 1 9 C0.34 8.67 -0.32 8.34 -1 8 C-1.625 4.9375 -1.625 4.9375 -2 2 C-1.34 2 -0.68 2 0 2 C0 1.34 0 0.68 0 0 Z " fill="#5E005E" transform="translate(95,192)"/>
<path d="M0 0 C1.42944945 2.35438733 2.08661261 3.48032433 1.625 6.25 C1.41875 6.8275 1.2125 7.405 1 8 C0.01 7.67 -0.98 7.34 -2 7 C-2 5.33333333 -2 3.66666667 -2 2 C-1.34 2 -0.68 2 0 2 C0 1.34 0 0.68 0 0 Z " fill="#E200E2" transform="translate(47,105)"/>
<path d="M0 0 C2.86724686 0.57344937 3.8614515 0.8614515 6 3 C5.01 3.66 4.02 4.32 3 5 C2.67 5.66 2.34 6.32 2 7 C1.34 4.69 0.68 2.38 0 0 Z " fill="#F000F0" transform="translate(181,106)"/>
<path d="M0 0 C1.32 0.33 2.64 0.66 4 1 C3.67 2.65 3.34 4.3 3 6 C2.01 6 1.02 6 0 6 C0 4.02 0 2.04 0 0 Z " fill="#000000" transform="translate(51,71)"/>
<path d="M0 0 C0.66 0 1.32 0 2 0 C2 1.65 2 3.3 2 5 C2.66 5.33 3.32 5.66 4 6 C3.34 6 2.68 6 2 6 C2 6.66 2 7.32 2 8 C2.66 8.33 3.32 8.66 4 9 C2.68 9.33 1.36 9.66 0 10 C0.33 8.68 0.66 7.36 1 6 C0.34 5.67 -0.32 5.34 -1 5 C-0.34 5 0.32 5 1 5 C0.67 3.35 0.34 1.7 0 0 Z " fill="#B700B7" transform="translate(153,63)"/>
<path d="M0 0 C1.42944945 2.35438733 2.08661261 3.48032433 1.625 6.25 C1.41875 6.8275 1.2125 7.405 1 8 C0.34 7.67 -0.32 7.34 -1 7 C-1.625 4.4375 -1.625 4.4375 -2 2 C-1.34 2 -0.68 2 0 2 C0 1.34 0 0.68 0 0 Z " fill="#E100E1" transform="translate(47,79)"/>
<path d="" fill="#000000" transform="translate(0,0)"/>
<path d="" fill="#000000" transform="translate(0,0)"/>
</svg>
